<svg width="94" height="89" viewBox="0 0 94 89" fill="none" xmlns="http://www.w3.org/2000/svg">
<g id="Component 50">
<circle id="Switch" cx="25.4513" cy="31.4293" r="24.951" fill="#F4475C"/>
<path id="Ellipse 2389" d="M74.1908 51.1582C74.1908 66.2201 61.9807 78.4302 46.9188 78.4302C31.8568 78.4302 19.6467 66.2201 19.6467 51.1582C19.6467 36.0962 31.8568 23.8861 46.9188 23.8861C61.9807 23.8861 74.1908 36.0962 74.1908 51.1582Z" stroke="#2A2B6B" stroke-width="5" stroke-linecap="round" stroke-linejoin="round"/>
<path id="Ellipse 2390" d="M64.3276 51.1581C64.3276 60.7721 56.5339 68.5658 46.9199 68.5658C37.3059 68.5658 29.5122 60.7721 29.5122 51.1581C29.5122 41.5441 37.3059 33.7504 46.9199 33.7504C56.5339 33.7504 64.3276 41.5441 64.3276 51.1581Z" stroke="#2A2B6B" stroke-width="5" stroke-linecap="round" stroke-linejoin="round"/>
<path id="Ellipse 2391" d="M54.4624 51.1581C54.4624 55.3241 51.0851 58.7014 46.9191 58.7014C42.753 58.7014 39.3757 55.3241 39.3757 51.1581C39.3757 46.992 42.753 43.6147 46.9191 43.6147C51.0851 43.6147 54.4624 46.992 54.4624 51.1581Z" stroke="#2A2B6B" stroke-width="5" stroke-linecap="round" stroke-linejoin="round"/>
</g>
</svg>
