<svg width="94" height="89" viewBox="0 0 94 89" fill="none" xmlns="http://www.w3.org/2000/svg">
<g id="Component 50">
<circle id="Switch" cx="25.451" cy="31.4293" r="24.951" fill="#F4475C"/>
<path id="Vector" d="M77.366 67.8998L64.6335 79.3345L64.6332 79.3347C59.9193 83.5628 53.8377 85.8945 47.5072 85.8945H23.1627C22.2259 85.8945 21.4658 85.1344 21.4658 84.1976C21.4658 83.2608 22.2259 82.5007 23.1627 82.5007H47.5072C52.9996 82.5007 58.2762 80.4805 62.3663 76.8095C62.3664 76.8094 62.3664 76.8094 62.3664 76.8094L75.5312 64.9912C76.661 63.8529 76.8466 62.0722 76.0039 60.8997C75.4485 60.1301 74.6455 59.6725 73.7295 59.5977C72.8243 59.5362 71.9297 59.8547 71.2879 60.4945L71.2799 60.5024L71.2716 60.51L61.2775 69.6168C60.1042 70.7983 58.4761 71.5344 56.6777 71.5344H44.7089C43.7721 71.5344 43.012 70.7743 43.012 69.8375C43.012 68.9007 43.7721 68.1406 44.7089 68.1406H56.6777C57.4932 68.1406 58.2363 67.822 58.79 67.3023C58.8251 67.2627 58.8651 67.2205 58.9098 67.1787L58.9187 67.1705L58.9188 67.1706L58.9445 67.1477C59.4556 66.5966 59.7683 65.8598 59.7683 65.05C59.7683 63.3465 58.3812 61.9593 56.6777 61.9593H42.5258C36.5876 61.9593 31.0051 64.27 26.8026 68.4678L24.3976 71.0016C24.397 71.0022 24.3965 71.0028 24.3959 71.0034C23.7508 71.6944 22.672 71.7114 21.9981 71.0697C21.3148 70.4261 21.2895 69.3501 21.9337 68.6721L24.368 66.1084L24.3769 66.099L24.3771 66.0992C29.2413 61.2349 35.6808 58.568 42.5258 58.568H56.6777C59.7131 58.568 62.2674 60.6627 62.9701 63.4829L68.9379 58.0479C70.2438 56.7445 72.0938 56.059 74.0015 56.219M77.366 67.8998L73.9606 56.7173M77.366 67.8998L77.385 67.9378L77.8756 67.4482C80.1935 65.1355 80.5995 61.4738 78.7588 58.9193M77.366 67.8998L78.3531 59.2116M74.0015 56.219C74.0018 56.219 74.0021 56.219 74.0024 56.2191L73.9606 56.7173M74.0015 56.219C74.0013 56.219 74.001 56.219 74.0008 56.2189L73.9606 56.7173M74.0015 56.219C75.9017 56.3724 77.6332 57.3564 78.7588 58.9193M73.9606 56.7173C75.7128 56.8585 77.3118 57.7658 78.3531 59.2116M78.7588 58.9193L78.3531 59.2116M78.7588 58.9193C78.7588 58.9193 78.7588 58.9194 78.7589 58.9194L78.3531 59.2116M37.8668 27.4527L37.8668 27.4528C41.7081 27.7233 44.8202 28.5849 47.2348 30.1567C49.3158 31.5113 50.8505 33.3751 51.888 35.7793C52.9262 33.3751 54.4609 31.5113 56.5419 30.1567C58.9565 28.5849 62.0687 27.7233 65.9112 27.4528L65.9222 27.452L65.9222 27.4521C67.0953 27.3956 68.2678 27.8017 69.1245 28.6584C69.9723 29.5063 70.4174 30.6796 70.33 31.8755C69.9611 37.1051 68.4958 40.9834 65.6431 43.5834C62.879 46.1026 58.8933 47.3472 53.5846 47.5587V50.6827C53.5846 51.6195 52.8246 52.3795 51.8878 52.3795C50.9509 52.3795 50.1909 51.6195 50.1909 50.6827V47.5587C44.8822 47.3472 40.8965 46.1025 38.1324 43.5831C35.2795 40.9826 33.8142 37.1034 33.4454 31.872L37.8668 27.4527ZM37.8668 27.4527L37.8597 27.4524M37.8668 27.4527L37.8597 27.4524M37.8597 27.4524C36.6585 27.3849 35.5025 27.8042 34.6505 28.659C33.8031 29.5091 33.3609 30.6794 33.4454 31.8718L37.8597 27.4524ZM62.6333 64.4659L63.0852 64.0543L62.5448 63.8702C62.584 64.0656 62.6137 64.2643 62.6333 64.4659ZM66.9438 31.6296L66.9436 31.6317C66.6319 36.0766 65.4829 39.1093 63.3195 41.0781C61.2317 42.9781 58.1126 43.9671 53.6206 44.1624C53.817 39.6704 54.806 36.5518 56.706 34.4643C58.6748 32.3012 61.7076 31.1522 66.1537 30.8393L66.1774 30.8376L66.1885 30.8358L66.2024 30.8357C66.3915 30.8357 66.579 30.912 66.725 31.0579C66.8816 31.2146 66.959 31.4252 66.9438 31.6296ZM36.8319 31.6316L36.8317 31.6294C36.8167 31.428 36.8935 31.2174 37.0505 31.0603L36.697 30.7068L37.0505 31.0603C37.193 30.9179 37.3804 30.8399 37.5667 30.8382L37.5747 30.8388L37.5758 30.8389C37.5824 30.8394 37.5941 30.8404 37.6065 30.8412C37.6152 30.8417 37.6256 30.8423 37.6373 30.8426C42.0751 31.1557 45.1038 32.3046 47.0707 34.4658C48.9707 36.5536 49.9597 39.6727 50.155 44.1647C45.663 43.9683 42.5444 42.9793 40.4569 41.0793C38.2939 39.1105 37.1449 36.0778 36.8319 31.6316Z" fill="#2A2B6B" stroke="#2A2B6B"/>
</g>
</svg>
