<svg width="70" height="52" viewBox="0 0 70 52" fill="none" xmlns="http://www.w3.org/2000/svg">
<path id="&#226;&#128;&#156;" d="M53.2868 51.8124C56.9939 51.8124 60.1346 50.9313 62.709 49.169C65.1804 47.4068 67.034 45.0744 68.2697 42.1719C69.4024 39.2694 69.9688 36.1595 69.9688 32.8424C69.9688 28.0739 68.9905 23.5647 67.034 19.3145C64.9745 15.0644 62.3486 11.3326 59.1564 8.11912C55.8612 4.80195 52.3085 2.26225 48.4985 0.5L37.8406 8.4301C40.6209 9.67404 43.2468 11.1771 45.7182 12.9394C48.1896 14.598 50.352 16.4639 52.2056 18.5371C53.9561 20.6103 55.2948 22.7354 56.2216 24.9123L55.4493 25.3787C54.8314 24.9641 54.1621 24.6531 53.4413 24.4458C52.6175 24.2385 51.5362 24.1348 50.1976 24.1348C48.344 24.1348 46.4905 24.6013 44.6369 25.5342C42.6804 26.4672 41.0843 27.8666 39.8486 29.7325C38.5099 31.5984 37.8406 33.9826 37.8406 36.8852C37.8406 40.0987 38.5614 42.8457 40.003 45.1262C41.4447 47.3031 43.3497 48.9617 45.7182 50.102C48.0866 51.2423 50.6095 51.8124 53.2868 51.8124ZM15.4435 51.8124C19.1506 51.8124 22.2914 50.9313 24.8657 49.169C27.3371 47.4068 29.1907 45.0744 30.4264 42.1719C31.5591 39.2694 32.1255 36.1595 32.1255 32.8424C32.1255 28.0739 31.1472 23.5647 29.1907 19.3145C27.1312 15.0644 24.5053 11.3326 21.3131 8.11912C18.0179 4.80195 14.4653 2.26225 10.6552 0.5L-0.00271606 8.4301C2.77761 9.67404 5.40347 11.1771 7.87487 12.9394C10.3463 14.598 12.5087 16.4639 14.3623 18.5371C16.1129 20.6103 17.4515 22.7354 18.3783 24.9123L17.606 25.3787C16.9882 24.9641 16.3188 24.6531 15.598 24.4458C14.7742 24.2385 13.693 24.1348 12.3543 24.1348C10.5007 24.1348 8.64718 24.6013 6.79363 25.5342C4.8371 26.4672 3.241 27.8666 2.00529 29.7325C0.666626 31.5984 -0.00271606 33.9826 -0.00271606 36.8852C-0.00271606 40.0987 0.718109 42.8457 2.15976 45.1262C3.60141 47.3031 5.50645 48.9617 7.87487 50.102C10.2433 51.2423 12.7662 51.8124 15.4435 51.8124Z" fill="white"/>
</svg>
