<svg width="85" height="99" viewBox="0 0 85 99" fill="none" xmlns="http://www.w3.org/2000/svg">
<g id="Frame 1410138869">
<g id="Group 427321383">
<path id="Vector 2291" d="M42.5494 88.0655C43.2072 77.1067 51.7089 55.1804 80.4532 55.146C79.6494 68.5403 70.9434 93.8761 42.5494 88.0655Z" fill="#2A2B6B" stroke="#2A2B6B" stroke-width="3.84" stroke-linecap="round" stroke-linejoin="round"/>
<path id="Vector 2292" d="M42.0209 88.0655C41.3631 77.1067 32.8615 55.1804 4.11714 55.146C4.92088 68.5403 13.6269 93.8761 42.0209 88.0655Z" stroke="#2A2B6B" stroke-width="3.84" stroke-linecap="round" stroke-linejoin="round"/>
</g>
<rect id="Rectangle 34625735" x="40.4531" y="47.5" width="4" height="42" fill="#2A2B6B"/>
<path id="Vector 2293" d="M27.9531 40.5C27.9531 31.8272 35.211 22.1825 43.0728 16.9998M43.0728 16.9998C49.7148 12.6213 57.1447 9.99984 61.9531 9.99984V28.2498C61.9531 38.8813 53.3346 47.4998 42.7031 47.4998V47.4998C32.0716 47.4998 23.4531 38.8813 23.4531 28.2498V9.99984C27.5329 9.66651 37.1685 10.5998 43.0728 16.9998Z" stroke="#2A2B6B" stroke-width="3.84" stroke-linecap="round" stroke-linejoin="round"/>
<path id="Vector 2294" d="M32.4531 11C32.4531 8 40.2531 2.5 43.4531 2.5C46.4531 2.5 53.4531 8.3 53.4531 11.5" stroke="#2A2B6B" stroke-width="3.84" stroke-linecap="round" stroke-linejoin="round"/>
</g>
</svg>
