<svg width="83" height="61" viewBox="0 0 83 61" fill="none" xmlns="http://www.w3.org/2000/svg">
<g id="Layer_1" clip-path="url(#clip0_1_1336)">
<path id="Vector" d="M46.6971 30.1525H43.3594V44.3297H46.6971V30.1525Z" fill="#3D408A"/>
<path id="Vector_2" d="M53.5477 36.3876C53.0209 36.3876 52.5941 35.9653 52.5941 35.4476V31.8874C52.6304 30.5614 54.6012 30.5569 54.6375 31.8874V34.612H56.3722V32.7366C56.2224 29.1401 51.0092 29.1401 50.8594 32.7366V36.0561C50.8639 36.2877 50.9411 36.9779 51.6087 37.2913C51.2681 37.4547 50.8594 37.7999 50.8594 38.5401V41.8233C51.0092 45.4198 56.2224 45.4198 56.3722 41.8233V38.1041H57.5347V36.3876H53.5477ZM53.6203 43.6806C53.0572 43.6806 52.5986 43.2265 52.5986 42.6724V39.0441C52.5986 38.5264 53.0255 38.1041 53.5522 38.1041H54.6421V42.677C54.6421 43.231 54.1834 43.6851 53.6203 43.6851" fill="#3D408A"/>
<path id="Vector_3" d="M3.48032 44.3281C3.47578 38.0478 3.07163 29.5152 6.06419 24.5382C6.42293 23.9024 6.95878 23.916 7.31752 24.5563C9.81965 28.9339 10.0149 36.1043 9.87415 44.3281H13.3481V38.3566C13.3481 30.1328 9.96951 25.8142 8.01231 24.0023C7.27211 23.3166 6.14593 23.303 5.40119 23.9842C-0.26606 29.2654 -0.0117606 37.3167 0.00640366 44.3281H3.48032Z" fill="#3D408A"/>
<path id="Vector_4" d="M21.0214 44.3297V34.5256C21.0214 32.8863 22.2748 31.5557 23.8142 31.5557C25.3536 31.5557 26.6024 32.8817 26.6024 34.521V44.3343H30.1081V34.5301C30.1081 32.8908 31.3615 31.5603 32.9009 31.5603C34.4403 31.5603 35.6891 32.8863 35.6891 34.5256V44.3388H39.1948V36.7416C39.2266 30.8292 32.306 27.7276 28.3553 32.1188C24.4 27.7276 17.4839 30.8337 17.5157 36.7416V44.3388H21.0214V44.3297Z" fill="#3D408A"/>
<path id="Vector_5" d="M64.47 44.3281V27.9257C64.47 26.3 65.7234 24.9786 67.2628 24.9786C68.8022 24.9786 70.051 26.2955 70.051 27.9167V44.3235H73.5612V27.9212C73.5612 26.2955 74.8146 24.974 76.354 24.974C77.8934 24.974 79.1422 26.291 79.1422 27.9121V44.319H82.6479V30.1055C82.6797 24.2429 75.7637 21.1686 71.8084 25.519C67.8531 21.1641 60.9371 24.2429 60.9689 30.1055V44.319H64.4746L64.47 44.3281Z" fill="#3D408A"/>
<path id="Vector_6" d="M7.56072 34.7913C7.07028 35.2817 6.28014 35.2817 5.7897 34.7913C5.29927 34.3009 5.29927 33.5107 5.7897 33.0203C6.28014 32.5299 7.07028 32.5299 7.56072 33.0203C8.05115 33.5107 8.05115 34.3009 7.56072 34.7913Z" fill="#85B658"/>
<path id="Vector_7" d="M43.5393 24.0941C44.3522 23.2813 45.6736 23.2813 46.4865 24.0941C47.2993 24.907 47.2993 26.2284 46.4865 27.0413C45.6736 27.8541 44.3522 27.8541 43.5393 27.0413C42.7265 26.2284 42.7265 24.907 43.5393 24.0941Z" fill="#3F469D"/>
<path id="Vector_8" d="M47.9744 14.1933C48.9508 13.217 50.5356 13.217 51.5119 14.1933C52.4883 15.1696 52.4883 16.7545 51.5119 17.7308C50.5356 18.7071 48.9508 18.7071 47.9744 17.7308C46.9981 16.7545 46.9981 15.1696 47.9744 14.1933Z" fill="#AB7BA5"/>
<path id="Vector_9" d="M56.9642 6.01123C58.104 4.87142 59.9523 4.87142 61.0921 6.01123C62.2319 7.15104 62.2319 8.99925 61.0921 10.1391C59.9523 11.2789 58.104 11.2789 56.9642 10.1391C55.8244 8.99925 55.8244 7.15104 56.9642 6.01123Z" fill="#DF6580"/>
<path id="Vector_10" d="M69.4618 1.65337C70.7651 0.350082 72.8767 0.350082 74.18 1.65337C75.4833 2.95666 75.4833 5.06825 74.18 6.37154C72.8767 7.67483 70.7651 7.67483 69.4618 6.37154C68.1586 5.06825 68.1586 2.95666 69.4618 1.65337Z" fill="#CB1B3C"/>
<path id="Vector_11" d="M13.1654 24.1773C12.6478 24.695 11.8122 24.695 11.2945 24.1773C10.7768 23.6596 10.7768 22.824 11.2945 22.3064C11.8122 21.7887 12.6478 21.7887 13.1654 22.3064C13.6831 22.824 13.6831 23.6596 13.1654 24.1773Z" fill="#27B462"/>
<path id="Vector_12" d="M18.7617 16.9644C19.3338 16.3922 20.2557 16.3922 20.8278 16.9644C21.3955 17.5366 21.3955 18.4584 20.8278 19.0261C20.2557 19.5982 19.3338 19.5982 18.7617 19.0261C18.194 18.4539 18.194 17.532 18.7617 16.9644Z" fill="#00B2D4"/>
<path id="Vector_13" d="M27.7527 15.1786C28.402 14.5292 29.4601 14.5292 30.1095 15.1786C30.7588 15.8279 30.7588 16.886 30.1095 17.5354C29.4601 18.1847 28.402 18.1847 27.7527 17.5354C27.1033 16.886 27.1033 15.8279 27.7527 15.1786Z" fill="#0098D2"/>
<path id="Vector_14" d="M36.8296 17.4625C37.5607 16.7314 38.7505 16.7314 39.4816 17.4625C40.2127 18.1936 40.2127 19.3834 39.4816 20.1145C38.7505 20.8456 37.5607 20.8456 36.8296 20.1145C36.0985 19.3834 36.0985 18.1936 36.8296 17.4625Z" fill="#4189C5"/>
</g>
<defs>
<clipPath id="clip0_1_1336">
<rect width="82.6429" height="60.319" fill="white" transform="translate(0 0.675903)"/>
</clipPath>
</defs>
</svg>
