<svg width="215" height="158" viewBox="0 0 215 158" fill="none" xmlns="http://www.w3.org/2000/svg">
<g id="Layer_1" clip-path="url(#clip0_1_1460)">
<path id="Vector" d="M121.496 77.3604H112.812V114.243H121.496V77.3604Z" fill="white"/>
<path id="Vector_2" d="M139.322 93.5812C137.952 93.5812 136.841 92.4825 136.841 91.1357V81.8737C136.936 78.424 142.063 78.4122 142.157 81.8737V88.962H146.67V84.0828C146.28 74.7263 132.718 74.7263 132.328 84.0828V92.7188C132.34 93.3213 132.541 95.117 134.277 95.9321C133.391 96.3574 132.328 97.2553 132.328 99.1809V107.722C132.718 117.079 146.28 117.079 146.67 107.722V98.0468H149.694V93.5812H139.322ZM139.511 112.554C138.046 112.554 136.853 111.373 136.853 109.932V100.492C136.853 99.1455 137.963 98.0468 139.334 98.0468H142.169V109.943C142.169 111.385 140.976 112.566 139.511 112.566" fill="white"/>
<path id="Vector_3" d="M9.04643 114.241C9.03462 97.9024 7.98319 75.7042 15.7685 62.7562C16.7018 61.1023 18.0958 61.1377 19.0291 62.8035C25.5385 74.192 26.0465 92.8461 25.6803 114.241H34.7179V98.7057C34.7179 77.3109 25.9284 66.0759 20.8366 61.3622C18.911 59.5783 15.9812 59.5428 14.0437 61.3149C-0.699982 75.0544 -0.0384084 96.0003 0.00884696 114.241H9.04643Z" fill="white"/>
<path id="Vector_4" d="M54.6753 114.241V88.7349C54.6753 84.4701 57.9359 81.0086 61.9408 81.0086C65.9457 81.0086 69.1945 84.4583 69.1945 88.7231V114.253H78.3147V88.7467C78.3147 84.4819 81.5754 81.0204 85.5803 81.0204C89.5851 81.0204 92.834 84.4701 92.834 88.7349V114.265H101.954V94.5C102.037 79.1184 84.0326 71.0496 73.7546 82.4735C63.4647 71.0496 45.4723 79.1302 45.555 94.5V114.265H54.6753V114.241Z" fill="white"/>
<path id="Vector_5" d="M167.71 114.243V71.5713C167.71 67.342 170.971 63.9042 174.976 63.9042C178.981 63.9042 182.23 67.3302 182.23 71.5477V114.231H191.362V71.5595C191.362 67.3302 194.622 63.8924 198.627 63.8924C202.632 63.8924 205.881 67.3184 205.881 71.5359V114.219H215.001V77.242C215.084 61.9903 197.091 53.9924 186.801 65.31C176.512 53.9805 158.519 61.9903 158.602 77.242V114.219H167.722L167.71 114.243Z" fill="white"/>
<path id="Vector_6" d="M19.6581 89.4334C18.3822 90.7093 16.3266 90.7093 15.0507 89.4334C13.7748 88.1576 13.7748 86.102 15.0507 84.8261C16.3266 83.5502 18.3822 83.5502 19.6581 84.8261C20.934 86.102 20.934 88.1576 19.6581 89.4334Z" fill="#85B658"/>
<path id="Vector_7" d="M113.274 61.6007C115.388 59.486 118.826 59.486 120.941 61.6007C123.055 63.7153 123.055 67.1532 120.941 69.2678C118.826 71.3825 115.388 71.3825 113.274 69.2678C111.159 67.1532 111.159 63.7153 113.274 61.6007Z" fill="#3F469D"/>
<path id="Vector_8" d="M124.811 35.8444C127.351 33.3045 131.474 33.3045 134.014 35.8444C136.554 38.3844 136.554 42.5074 134.014 45.0474C131.474 47.5874 127.351 47.5874 124.811 45.0474C122.271 42.5074 122.271 38.3844 124.811 35.8444Z" fill="#AB7BA5"/>
<path id="Vector_9" d="M148.193 14.556C151.158 11.5907 155.966 11.5907 158.931 14.556C161.897 17.5213 161.897 22.3295 158.931 25.2948C155.966 28.26 151.158 28.26 148.193 25.2948C145.227 22.3295 145.227 17.5213 148.193 14.556Z" fill="#DF6580"/>
<path id="Vector_10" d="M180.707 3.21578C184.098 -0.174791 189.591 -0.174791 192.982 3.21578C196.372 6.60635 196.372 12.0998 192.982 15.4904C189.591 18.8809 184.098 18.8809 180.707 15.4904C177.316 12.0998 177.316 6.60635 180.707 3.21578Z" fill="#CB1B3C"/>
<path id="Vector_11" d="M34.2602 61.812C32.9134 63.1587 30.7397 63.1587 29.3929 61.812C28.0461 60.4652 28.0461 58.2914 29.3929 56.9447C30.7397 55.5979 32.9134 55.5979 34.2602 56.9447C35.607 58.2914 35.607 60.4652 34.2602 61.812Z" fill="#27B462"/>
<path id="Vector_12" d="M48.8185 43.0529C50.307 41.5644 52.7052 41.5644 54.1938 43.0529C55.6705 44.5415 55.6705 46.9397 54.1938 48.4164C52.7052 49.905 50.307 49.905 48.8185 48.4164C47.3418 46.9279 47.3418 44.5297 48.8185 43.0529Z" fill="#00B2D4"/>
<path id="Vector_13" d="M72.1889 38.4106C73.8783 36.7212 76.6309 36.7212 78.3203 38.4106C80.0097 40.1 80.0097 42.8526 78.3203 44.542C76.6309 46.2313 73.8783 46.2313 72.1889 44.542C70.4995 42.8526 70.4995 40.1 72.1889 38.4106Z" fill="#0098D2"/>
<path id="Vector_14" d="M95.8093 44.3523C97.7114 42.4503 100.807 42.4503 102.709 44.3523C104.611 46.2543 104.611 49.3496 102.709 51.2516C100.807 53.1536 97.7114 53.1536 95.8093 51.2516C93.9073 49.3496 93.9073 46.2543 95.8093 44.3523Z" fill="#4189C5"/>
<g id="Group">
<path id="Vector_15" d="M142.455 138.116C142.704 138.352 142.822 138.659 142.822 139.037C142.822 139.416 142.704 139.723 142.455 139.947C142.207 140.172 141.888 140.29 141.498 140.29H138.084V151.832C138.084 152.21 137.943 152.529 137.671 152.789C137.399 153.049 137.056 153.179 136.655 153.179C136.253 153.179 135.911 153.049 135.651 152.789C135.391 152.529 135.261 152.21 135.261 151.832V140.29H131.847C131.457 140.29 131.138 140.172 130.89 139.935C130.642 139.699 130.523 139.392 130.523 139.014C130.523 138.636 130.653 138.34 130.901 138.104C131.15 137.868 131.469 137.75 131.847 137.75H141.498C141.888 137.75 142.207 137.868 142.455 138.104V138.116Z" fill="white"/>
<path id="Vector_16" d="M152.022 141.554C152.318 141.802 152.471 142.097 152.471 142.44C152.471 142.901 152.353 143.231 152.129 143.468C151.892 143.692 151.621 143.81 151.302 143.81C151.089 143.81 150.841 143.763 150.557 143.657C150.51 143.645 150.416 143.609 150.262 143.574C150.108 143.527 149.943 143.503 149.778 143.503C149.4 143.503 149.045 143.621 148.691 143.857C148.348 144.094 148.053 144.448 147.828 144.921C147.604 145.393 147.497 145.972 147.497 146.634V151.855C147.497 152.233 147.379 152.552 147.131 152.812C146.883 153.072 146.576 153.202 146.198 153.202C145.82 153.202 145.513 153.072 145.265 152.812C145.017 152.552 144.898 152.233 144.898 151.855V142.759C144.898 142.381 145.017 142.062 145.265 141.802C145.513 141.542 145.82 141.412 146.198 141.412C146.576 141.412 146.883 141.542 147.131 141.802C147.379 142.062 147.497 142.381 147.497 142.759V143.042C147.828 142.44 148.313 141.979 148.927 141.66C149.553 141.341 150.215 141.188 150.923 141.188C151.361 141.188 151.727 141.317 152.022 141.566V141.554Z" fill="white"/>
<path id="Vector_17" d="M164.655 141.555C164.903 141.803 165.021 142.122 165.021 142.524V151.845C165.021 152.223 164.903 152.542 164.655 152.802C164.407 153.062 164.1 153.192 163.722 153.192C163.344 153.192 163.036 153.062 162.8 152.813C162.564 152.565 162.434 152.246 162.422 151.868C162.056 152.294 161.572 152.66 160.957 152.955C160.343 153.251 159.693 153.404 159.008 153.404C158.004 153.404 157.106 153.144 156.291 152.624C155.476 152.105 154.838 151.384 154.365 150.451C153.893 149.529 153.656 148.478 153.656 147.296C153.656 146.115 153.893 145.064 154.353 144.13C154.814 143.197 155.452 142.476 156.255 141.945C157.059 141.413 157.945 141.165 158.913 141.165C159.61 141.165 160.26 141.295 160.863 141.555C161.477 141.815 161.985 142.134 162.41 142.535V142.512C162.41 142.134 162.528 141.815 162.777 141.555C163.025 141.295 163.332 141.165 163.71 141.165C164.088 141.165 164.395 141.295 164.643 141.543L164.655 141.555ZM161.642 149.931C162.233 149.234 162.528 148.36 162.528 147.296C162.528 146.233 162.233 145.359 161.642 144.65C161.052 143.941 160.284 143.587 159.339 143.587C158.394 143.587 157.649 143.941 157.059 144.65C156.468 145.359 156.173 146.233 156.173 147.296C156.173 148.36 156.468 149.234 157.047 149.931C157.638 150.628 158.394 150.982 159.339 150.982C160.284 150.982 161.052 150.628 161.642 149.931Z" fill="white"/>
<path id="Vector_18" d="M167.94 139.724C167.739 139.559 167.633 139.275 167.633 138.862V138.448C167.633 138.035 167.739 137.751 167.964 137.586C168.176 137.421 168.531 137.338 169.003 137.338C169.511 137.338 169.866 137.421 170.066 137.586C170.267 137.751 170.374 138.035 170.374 138.448V138.862C170.374 139.287 170.267 139.583 170.055 139.736C169.842 139.89 169.488 139.972 168.98 139.972C168.472 139.972 168.141 139.89 167.94 139.724ZM169.937 152.802C169.688 153.062 169.381 153.192 169.003 153.192C168.625 153.192 168.318 153.062 168.07 152.802C167.822 152.542 167.704 152.223 167.704 151.845V142.749C167.704 142.371 167.822 142.052 168.07 141.792C168.318 141.532 168.625 141.402 169.003 141.402C169.381 141.402 169.688 141.532 169.937 141.792C170.185 142.052 170.303 142.371 170.303 142.749V151.845C170.303 152.223 170.185 152.542 169.937 152.802Z" fill="white"/>
<path id="Vector_19" d="M182.258 142.513C182.825 143.399 183.109 144.627 183.109 146.199V151.846C183.109 152.224 182.99 152.543 182.742 152.803C182.494 153.062 182.187 153.192 181.809 153.192C181.431 153.192 181.124 153.062 180.876 152.803C180.628 152.543 180.51 152.224 180.51 151.846V146.199C180.51 145.395 180.344 144.757 180.013 144.297C179.683 143.836 179.104 143.6 178.3 143.6C177.497 143.6 176.8 143.848 176.327 144.332C175.855 144.828 175.607 145.443 175.607 146.199V151.846C175.607 152.224 175.489 152.543 175.241 152.803C174.993 153.062 174.685 153.192 174.307 153.192C173.929 153.192 173.622 153.062 173.374 152.803C173.126 152.543 173.008 152.224 173.008 151.846V142.749C173.008 142.371 173.126 142.052 173.374 141.792C173.622 141.532 173.929 141.402 174.307 141.402C174.685 141.402 174.993 141.532 175.241 141.792C175.489 142.052 175.607 142.371 175.607 142.749V143.127C175.997 142.595 176.505 142.146 177.143 141.757C177.781 141.367 178.466 141.178 179.222 141.178C180.699 141.178 181.715 141.627 182.282 142.513H182.258Z" fill="white"/>
<path id="Vector_20" d="M186.01 139.724C185.809 139.559 185.703 139.275 185.703 138.862V138.448C185.703 138.035 185.809 137.751 186.034 137.586C186.247 137.421 186.601 137.338 187.074 137.338C187.582 137.338 187.936 137.421 188.137 137.586C188.338 137.751 188.444 138.035 188.444 138.448V138.862C188.444 139.287 188.338 139.583 188.125 139.736C187.912 139.89 187.558 139.972 187.05 139.972C186.542 139.972 186.211 139.89 186.01 139.724ZM188.007 152.802C187.759 153.062 187.452 153.192 187.074 153.192C186.695 153.192 186.388 153.062 186.14 152.802C185.892 152.542 185.774 152.223 185.774 151.845V142.749C185.774 142.371 185.892 142.052 186.14 141.792C186.388 141.532 186.695 141.402 187.074 141.402C187.452 141.402 187.759 141.532 188.007 141.792C188.255 142.052 188.373 142.371 188.373 142.749V151.845C188.373 152.223 188.255 152.542 188.007 152.802Z" fill="white"/>
<path id="Vector_21" d="M200.336 142.513C200.903 143.399 201.187 144.627 201.187 146.199V151.846C201.187 152.224 201.069 152.543 200.821 152.803C200.572 153.062 200.265 153.192 199.887 153.192C199.509 153.192 199.202 153.062 198.954 152.803C198.706 152.543 198.588 152.224 198.588 151.846V146.199C198.588 145.395 198.422 144.757 198.092 144.297C197.761 143.836 197.182 143.6 196.379 143.6C195.575 143.6 194.878 143.848 194.406 144.332C193.933 144.828 193.685 145.443 193.685 146.199V151.846C193.685 152.224 193.567 152.543 193.319 152.803C193.071 153.062 192.763 153.192 192.385 153.192C192.007 153.192 191.7 153.062 191.452 152.803C191.204 152.543 191.086 152.224 191.086 151.846V142.749C191.086 142.371 191.204 142.052 191.452 141.792C191.7 141.532 192.007 141.402 192.385 141.402C192.763 141.402 193.071 141.532 193.319 141.792C193.567 142.052 193.685 142.371 193.685 142.749V143.127C194.075 142.595 194.583 142.146 195.221 141.757C195.859 141.367 196.544 141.178 197.3 141.178C198.777 141.178 199.793 141.627 200.36 142.513H200.336Z" fill="white"/>
<path id="Vector_22" d="M214.559 141.556C214.807 141.804 214.925 142.123 214.925 142.525V152.33C214.925 154.126 214.382 155.449 213.283 156.311C212.184 157.174 210.802 157.599 209.125 157.599C208.687 157.599 208.097 157.528 207.329 157.375C206.573 157.233 206.029 157.079 205.71 156.937C205.001 156.63 204.647 156.205 204.647 155.661C204.647 155.555 204.671 155.437 204.718 155.307C204.801 154.988 204.954 154.74 205.167 154.575C205.38 154.409 205.604 154.327 205.852 154.327C205.994 154.327 206.136 154.35 206.266 154.397C206.325 154.409 206.679 154.551 207.341 154.811C208.002 155.071 208.593 155.201 209.136 155.201C210.211 155.201 211.003 154.988 211.535 154.551C212.066 154.114 212.326 153.5 212.326 152.708V151.645C212.007 152.106 211.523 152.507 210.885 152.873C210.235 153.24 209.55 153.429 208.806 153.429C207.79 153.429 206.868 153.169 206.041 152.649C205.202 152.129 204.553 151.409 204.08 150.475C203.607 149.554 203.359 148.502 203.359 147.321C203.359 146.14 203.596 145.088 204.068 144.155C204.541 143.222 205.179 142.501 206.006 141.969C206.833 141.438 207.73 141.19 208.735 141.19C209.479 141.19 210.164 141.343 210.802 141.65C211.44 141.957 211.948 142.335 212.35 142.773V142.525C212.35 142.146 212.468 141.827 212.716 141.568C212.964 141.308 213.271 141.178 213.649 141.178C214.027 141.178 214.334 141.308 214.583 141.556H214.559ZM211.511 149.932C212.125 149.235 212.432 148.361 212.432 147.297C212.432 146.234 212.125 145.36 211.511 144.651C210.897 143.942 210.105 143.588 209.136 143.588C208.168 143.588 207.376 143.942 206.774 144.651C206.171 145.36 205.864 146.234 205.864 147.297C205.864 148.361 206.171 149.235 206.774 149.932C207.388 150.629 208.168 150.983 209.136 150.983C210.105 150.983 210.897 150.629 211.511 149.932Z" fill="white"/>
</g>
</g>
<defs>
<clipPath id="clip0_1_1460">
<rect width="215" height="156.923" fill="white" transform="translate(0 0.675781)"/>
</clipPath>
</defs>
</svg>
