<svg width="95" height="91" viewBox="0 0 95 91" fill="none" xmlns="http://www.w3.org/2000/svg">
<g id="Component 50">
<circle id="Switch" cx="25.4503" cy="31.4293" r="24.951" fill="#F4475C"/>
<path id="Vector" d="M83.6819 75.2028L83.6816 75.2031L67.3376 87.4584C65.5179 88.8705 63.3308 89.5792 61.1395 89.5792C58.9484 89.5792 56.745 88.8679 54.9141 87.4419L38.5895 75.2031L38.5891 75.2028C37.1038 74.0876 35.2599 73.4744 33.4036 73.4744H30.2745C29.1195 73.4744 28.1826 72.5375 28.1826 71.3826C28.1826 70.2277 29.1196 69.2907 30.2745 69.2907H33.4063C36.166 69.2907 38.8949 70.1992 41.0995 71.8533C41.0996 71.8534 41.0997 71.8534 41.0997 71.8535L57.4485 84.1124L57.4543 84.1167L57.46 84.1211C59.6308 85.8149 62.641 85.8075 64.7967 84.1359L64.8063 84.1285L64.8063 84.1285L81.1741 71.8534L81.1745 71.853C81.47 71.6318 81.7744 71.4247 82.0866 71.2313L63.9843 57.6577L60.9312 60.5803C59.5445 61.9639 57.6543 62.7397 55.6863 62.7397C53.1345 62.7397 50.901 61.4061 49.6057 59.6075L83.6819 75.2028ZM83.6819 75.2028C85.1672 74.0876 87.0111 73.4744 88.8674 73.4744H91.9992C93.1541 73.4744 94.0911 72.5375 94.0911 71.3826C94.0911 70.2277 93.1541 69.2907 91.9992 69.2907H88.8674C88.1439 69.2907 87.4239 69.3547 86.7166 69.4767L67.0469 54.7251M83.6819 75.2028L67.0469 54.7251M50.6233 49.7933L50.6313 49.7857L58.1706 42.687L56.1235 40.8227C56.1234 40.8226 56.1233 40.8225 56.1232 40.8224C53.501 38.4366 49.3692 38.0043 46.4013 39.4919L46.4008 39.4922L40.1881 42.5999L40.1879 42.6C38.4144 43.4867 36.4317 43.9539 34.4503 43.9539H30.2745C29.1195 43.9539 28.1826 43.017 28.1826 41.862C28.1826 40.7071 29.1195 39.7702 30.2745 39.7702H34.4503C35.7828 39.7702 37.1226 39.4539 38.3149 38.8591C38.3151 38.859 38.3152 38.8589 38.3154 38.8588L44.5263 35.752C44.5265 35.7519 44.5267 35.7518 44.527 35.7517C46.2881 34.867 48.2631 34.4028 50.2384 34.4028C53.5216 34.4028 56.5792 35.5841 58.9389 37.7298L58.9397 37.7305L61.2226 39.8118L63.2796 37.8755L63.2797 37.8754C67.1022 34.2784 73.072 33.41 77.7441 35.7517L83.9556 38.8588C83.9558 38.8589 83.9559 38.859 83.9561 38.8591C85.1484 39.4539 86.4882 39.7702 87.8207 39.7702H91.9965C93.1515 39.7702 94.0884 40.7071 94.0884 41.862C94.0884 43.017 93.1515 43.9539 91.9965 43.9539H87.8207C85.8421 43.9539 83.8567 43.4868 82.0831 42.6L82.0829 42.5999L75.8702 39.4922L75.8695 39.4918C72.7377 37.921 68.7057 38.5096 66.1464 40.9211L66.1461 40.9213L53.5334 52.7966C52.2956 54.0414 52.116 55.9369 52.9989 57.163C53.5897 57.9818 54.4428 58.4656 55.4138 58.5448C56.3732 58.6144 57.3203 58.2747 57.9971 57.5957L58.0033 57.5895L58.0097 57.5834L69.1865 46.8842C70.0206 46.0836 71.3471 46.1142 72.1456 46.9503L72.1457 46.9503C72.94 47.7823 72.9162 49.1076 72.0785 49.9078L72.0789 49.9074L71.5603 49.3656L72.0783 49.908L50.6233 49.7933ZM50.6233 49.7933L50.6154 49.8011M50.6233 49.7933L50.6154 49.8011M67.0469 54.7251L66.4387 54.269L67.0469 54.7251ZM50.6154 49.8011C47.957 52.4567 47.486 56.6646 49.6056 59.6074L50.6154 49.8011Z" fill="#2A2B6B" stroke="#2A2B6B" stroke-width="1.5"/>
</g>
</svg>
