<svg width="1140" height="557" viewBox="0 0 1140 557" fill="none" xmlns="http://www.w3.org/2000/svg">
<path opacity="0.2" d="M1047 0.789885C1042.99 1.21826 1039.13 2.075 1035.41 2.93175C705.864 66.6168 592.009 343.061 558.396 458.579C551.244 483.14 523.639 495.42 500.753 484.139C436.961 453.011 309.089 406.746 140.023 424.881C-107.425 451.44 -226 679.335 -226 679.335L-206.261 862.108C-206.261 862.108 -121.299 597.944 153.754 568.529C352.428 547.253 484.734 679.192 542.805 754.158C566.406 784.573 603.881 800.422 642.071 796.424C687.698 791.569 721.025 751.73 718.737 705.894C694.564 234.397 1064.88 166.856 1064.88 166.856C1110.79 161.859 1144.12 120.735 1139.11 74.8987C1134.11 29.0626 1092.91 -4.20782 1047 0.789885Z" fill="url(#paint0_linear_15000_1175)"/>
<defs>
<linearGradient id="paint0_linear_15000_1175" x1="-162.689" y1="873.058" x2="1226.1" y2="183.206" gradientUnits="userSpaceOnUse">
<stop offset="0.04" stop-color="#292664" stop-opacity="0"/>
<stop offset="0.24" stop-color="#6B8ED2" stop-opacity="0.24"/>
<stop offset="0.43" stop-color="#5CBAFF"/>
<stop offset="0.75" stop-color="#E759AE"/>
<stop offset="0.99" stop-color="#F4475C"/>
</linearGradient>
</defs>
</svg>
